<?xml version="1.0" encoding="utf-8"?>
<!-- Generator: Adobe Illustrator 16.0.4, SVG Export Plug-In . SVG Version: 6.00 Build 0)  -->
<!DOCTYPE svg PUBLIC "-//W3C//DTD SVG 1.1//EN" "http://www.w3.org/Graphics/SVG/1.1/DTD/svg11.dtd">
<svg version="1.1" id="Layer_1" xmlns="http://www.w3.org/2000/svg" xmlns:xlink="http://www.w3.org/1999/xlink" x="0px" y="0px"
	 width="54px" height="54px" viewBox="0 0 54 54" enable-background="new 0 0 54 54" xml:space="preserve">
<g id="Layer_2">
</g>
<g id="Layer_1_1_" display="none">
	<g display="inline">
		<path fill="#43A5DC" d="M49.234,12.854c-0.776,0-1.407,0.638-1.407,1.421v25.452c0,0.783,0.631,1.418,1.407,1.418
			c0.774,0,1.408-0.635,1.408-1.418V14.275C50.645,13.492,50.012,12.854,49.234,12.854"/>
		<path fill="#43A5DC" d="M35.605,12.854c-0.778,0-1.41,0.638-1.41,1.421V35.09c0,0.782,0.632,1.42,1.41,1.42
			c0.774,0,1.406-0.638,1.406-1.42V14.275C37.014,13.492,36.382,12.854,35.605,12.854"/>
		<path fill="#43A5DC" d="M27.363,12.854c-0.777,0-1.409,0.638-1.409,1.421V35.09c0,0.782,0.632,1.42,1.409,1.42
			c0.778,0,1.409-0.638,1.409-1.42V14.275C28.771,13.492,28.143,12.854,27.363,12.854"/>
		<path fill="#43A5DC" d="M4.425,12.854c-0.778,0-1.41,0.638-1.41,1.421v25.452c0,0.783,0.632,1.418,1.41,1.418
			c0.777,0,1.409-0.635,1.409-1.418V14.275C5.834,13.492,5.202,12.854,4.425,12.854"/>
		<path fill="#43A5DC" d="M10.528,12.854c-0.777,0-1.41,0.638-1.41,1.421v25.452c0,0.783,0.633,1.418,1.41,1.418
			c0.776,0,1.409-0.635,1.409-1.418V14.275C11.938,13.492,11.305,12.854,10.528,12.854"/>
		<path fill="#43A5DC" d="M43.132,13.004h-1.424c-0.776,0-1.41,0.638-1.41,1.421v20.513c0,0.783,0.634,1.422,1.41,1.422h1.424
			c0.779,0,1.408-0.639,1.408-1.422V14.426C44.54,13.643,43.911,13.004,43.132,13.004"/>
		<path fill="#43A5DC" d="M18.998,13.004h-2.362c-0.78,0-1.414,0.638-1.414,1.421v20.513c0,0.783,0.634,1.422,1.414,1.422h2.362
			c0.779,0,1.411-0.639,1.411-1.422V14.426C20.409,13.643,19.777,13.004,18.998,13.004"/>
	</g>
</g>
<g id="Layer_3" display="none">
	<path display="inline" fill="#43A5DC" d="M47.852,41.136l-9.459-9.46c-0.037-0.043-0.098-0.072-0.136-0.113
		c3.979-6.959,3.022-15.979-2.919-21.922c-7.12-7.119-18.646-7.119-25.763,0c-7.111,7.116-7.111,18.648,0,25.762
		c5.942,5.947,14.962,6.904,21.917,2.918c0.044,0.05,0.076,0.101,0.121,0.145l9.453,9.456c1.759,1.751,4.619,1.751,6.371,0
		l0.412-0.412C49.605,45.755,49.605,42.889,47.852,41.136z M15.365,29.613c-3.926-3.92-3.926-10.266,0-14.19
		c3.915-3.915,10.269-3.915,14.185,0c3.915,3.925,3.915,10.271,0,14.19C25.634,33.529,19.28,33.529,15.365,29.613z"/>
</g>
<g id="Layer_4" display="none">
	<path display="inline" fill="#43A5DC" d="M39.725,23.384c-0.701,1.525-2.021,2.274-3.972,2.274h-2.759l2.081-4.424H37.2
		c0.954,0,1.687,0.076,2.192,0.376C39.896,21.914,40.012,22.498,39.725,23.384 M51.688,17.985l-7.83,17.559
		c-1.244,2.778-4.748,5.052-7.789,5.052H5.669c-3.041,0-4.516-2.271-3.277-5.052l7.835-17.559c1.24-2.776,4.745-5.05,7.788-5.05
		H48.41C51.453,12.936,52.927,15.209,51.688,17.985 M23.63,28.977l1.764-3.871h-7.835l1.773-3.871h8.473l1.793-3.871H16.98
		L8.243,36.723h4.143l3.411-7.746H23.63z M39.555,17.363H32.57l-8.74,19.36h4.143l3.409-7.746h3.026c4.64,0,7.849-1.907,9.619-5.786
		c0.178-0.388,0.326-0.728,0.438-1.088C45.456,19.006,43.82,17.363,39.555,17.363"/>
</g>
<g id="Layer_5" display="none">
	<g display="inline">
		<path fill="#43A5DC" d="M8.512,28.598c-0.006,0-0.016,0-0.023,0L4.394,27.52c-0.04-0.013-0.067-0.045-0.067-0.084
			s0.028-0.076,0.063-0.086L8.489,26.2c0.026-0.006,0.055,0,0.078,0.016c0.022,0.017,0.034,0.043,0.034,0.072v2.223
			c0,0.028-0.012,0.056-0.034,0.071C8.551,28.593,8.532,28.598,8.512,28.598z"/>
		<path fill="#43A5DC" d="M32.378,6.69c-0.007,0-0.019,0-0.022,0l-4.099-1.081c-0.042-0.009-0.067-0.045-0.067-0.084
			s0.025-0.073,0.065-0.085l4.101-1.147c0.026-0.008,0.055-0.003,0.076,0.014c0.021,0.016,0.036,0.043,0.036,0.07v2.226
			c0,0.028-0.016,0.055-0.036,0.07C32.414,6.685,32.398,6.69,32.378,6.69z"/>
		<path fill="#43A5DC" d="M45.688,28.598c-0.008,0-0.021,0-0.023,0l-4.096-1.078c-0.043-0.013-0.068-0.045-0.068-0.084
			s0.025-0.076,0.062-0.086l4.102-1.148c0.023-0.006,0.057,0,0.077,0.016c0.021,0.017,0.034,0.043,0.034,0.072v2.223
			c0,0.028-0.016,0.057-0.034,0.071C45.725,28.593,45.707,28.598,45.688,28.598z"/>
		<path fill="#43A5DC" d="M15.751,18.76c-0.006,0-0.016,0-0.024-0.003l-4.092-1.079c-0.043-0.01-0.069-0.044-0.069-0.084
			c0-0.041,0.026-0.076,0.065-0.084l4.096-1.149c0.028-0.007,0.055-0.002,0.079,0.016c0.021,0.017,0.033,0.041,0.033,0.069v2.227
			c0,0.027-0.012,0.055-0.033,0.07C15.788,18.754,15.773,18.76,15.751,18.76z"/>
		<path fill="#43A5DC" d="M48.768,33.623c-0.057-0.021-0.125-0.036-0.213-0.036l0,0h-0.726l-2.099-4.45
			c-0.017-0.037-0.055-0.062-0.098-0.062c-0.003,0-0.003,0-0.003,0c-0.039,0-0.078,0.024-0.094,0.059l-2.065,4.272l-1.76-2.312
			c-0.021-0.025-0.05-0.043-0.085-0.043h-0.002c-0.033,0-0.065,0.018-0.084,0.041l-1.801,2.307l-1.854-12.972
			c0.236-0.114,0.389-0.359,0.389-0.637c0-0.394-0.299-0.715-0.668-0.715c-0.364,0-0.668,0.321-0.668,0.715
			c0,0.276,0.152,0.522,0.391,0.635L36.175,28.3h-1.329v-5.278l0.805-1.156c0.013-0.02,0.019-0.04,0.019-0.062v-2.556
			c0-0.061-0.049-0.108-0.106-0.108h-1.066v-2.311h0.857c0.062,0,0.108-0.048,0.108-0.109v-2.47c0-0.06-0.048-0.108-0.108-0.108
			h-0.857v-0.853h0.215c0.004,0,0.027-0.002,0.029-0.002c0.078-0.008,0.158-0.026,0.25-0.166c0.056-0.105,0.056-0.222,0-0.323
			l-2.614-5.592c-0.017-0.038-0.056-0.062-0.097-0.062h-0.002c-0.043,0-0.078,0.023-0.098,0.061l-2.691,5.604
			c-0.022,0.056-0.098,0.224,0.076,0.406c0.057,0.049,0.125,0.076,0.205,0.076l0,0h0.219v0.853h-0.857
			c-0.061,0-0.111,0.048-0.111,0.108v2.469c0,0.061,0.051,0.109,0.111,0.109h0.857v2.311H28.92c-0.059,0-0.109,0.048-0.109,0.108
			v2.556c0,0.022,0.01,0.043,0.021,0.062l0.802,1.156v3.252l-3.604-7.076c-0.02-0.037-0.055-0.06-0.097-0.06l0,0
			c-0.043,0-0.08,0.022-0.097,0.058l-2.74,5.246v-5.119h0.514c0.001,0,0.004,0,0.006,0c0.059,0,0.108-0.047,0.108-0.108
			c0-0.031-0.014-0.059-0.034-0.078l-1.799-3.29c-0.02-0.033-0.055-0.055-0.094-0.056l0,0c-0.04,0-0.076,0.021-0.096,0.054
			l-1.921,3.313c-0.02,0.034-0.02,0.075,0,0.109c0.02,0.034,0.056,0.054,0.095,0.054h0.514V28.3H18.94v-2.034l0.158-0.002
			c0.103-0.003,0.198-0.02,0.326-0.174c0.073-0.121,0.072-0.252,0-0.361l-3.607-6.534c-0.021-0.035-0.055-0.056-0.095-0.056l0,0
			c-0.04,0-0.075,0.021-0.096,0.055l-3.708,6.545c-0.092,0.168-0.062,0.318,0.099,0.455c0.07,0.047,0.152,0.072,0.244,0.072h0.002
			h0.152l0.832,7.321h-2.61l-2.102-4.45C8.517,29.1,8.48,29.075,8.438,29.075l0,0c-0.042,0-0.082,0.024-0.098,0.059l-2.151,4.454
			H5.443c-0.076,0-0.173,0.002-0.3,0.1c-0.06,0.056-0.071,0.109-0.071,0.149c0,0.032,0.01,0.081,0.054,0.129l1.17,3.359v11.459
			c0,0.06,0.048,0.11,0.109,0.11h15.408c0.059,0,0.108-0.053,0.108-0.11v-4.345c0-2.621,2.28-4.756,5.08-4.756
			c2.802,0,5.081,2.135,5.081,4.756v4.344c0,0.06,0.05,0.111,0.109,0.111h15.312c0.062,0,0.108-0.054,0.108-0.111v-11.42
			l1.271-3.409c0.021-0.031,0.059-0.088,0.043-0.162C48.907,33.691,48.807,33.645,48.768,33.623z"/>
	</g>
</g>
<g id="Layer_6" display="none">
	<g display="inline">
		<path fill="#43A5DC" d="M33.281,45.559c-1.989,0.6-4.096,0.916-6.28,0.916c-2.183,0-4.289-0.316-6.279-0.916l-1.238,2.488
			c2.374,0.756,4.897,1.178,7.517,1.178c2.622,0,5.142-0.422,7.519-1.178L33.281,45.559z"/>
		<path fill="#43A5DC" d="M27.002-0.328c-13.658,0-24.775,11.113-24.775,24.777c0,8.393,4.197,15.814,10.598,20.297l1.255-2.477
			c-5.512-4.006-9.112-10.486-9.112-17.821c0-12.168,9.863-22.033,22.033-22.033c12.169,0,22.033,9.865,22.033,22.033
			c0,7.334-3.601,13.815-9.113,17.829l1.256,2.469c6.402-4.482,10.597-11.904,10.597-20.297
			C51.773,10.785,40.659-0.328,27.002-0.328"/>
		<path fill="#43A5DC" d="M47.803,24.068l-9.97-1.79l5.442-4.083c0.158-0.12,0.215-0.323,0.139-0.509
			c-0.071-0.174-0.264-0.281-0.453-0.254l-6.766,0.933l5.138-7.607c0.117-0.166,0.094-0.389-0.051-0.539
			c-0.144-0.14-0.365-0.162-0.534-0.045l-7.628,5.105l0.967-6.76c0.026-0.187-0.077-0.38-0.255-0.458
			c-0.182-0.073-0.387-0.02-0.505,0.141l-4.104,5.427l-1.761-9.984c-0.032-0.205-0.215-0.357-0.417-0.357
			c-0.209,0-0.383,0.152-0.423,0.357l-1.793,9.97l-4.08-5.448c-0.118-0.154-0.323-0.207-0.505-0.126
			c-0.176,0.063-0.282,0.246-0.257,0.44l0.936,6.765l-7.606-5.129c-0.167-0.118-0.399-0.097-0.542,0.056
			c-0.146,0.138-0.166,0.36-0.053,0.529l5.109,7.618l-6.762-0.966c-0.194-0.025-0.381,0.085-0.453,0.259
			c-0.074,0.178-0.015,0.389,0.139,0.513l5.429,4.099L6.2,23.987c-0.202,0.036-0.35,0.215-0.35,0.419
			c0,0.211,0.146,0.385,0.348,0.414l9.972,1.789l-5.445,4.094c-0.158,0.109-0.214,0.324-0.139,0.498
			c0.075,0.18,0.263,0.287,0.453,0.258l6.836-0.945l-3.515,5.943c-0.103,0.162-0.072,0.381,0.062,0.51
			c0.138,0.143,0.352,0.17,0.521,0.072l5.46-3.199l-7.536,14.867c-0.049,0.113-0.041,0.242,0.022,0.352
			c0.067,0.104,0.176,0.166,0.296,0.17l3.39,0.102h0.006c0.145,0,0.279-0.084,0.337-0.221l4.974-10.031l2.886-3.812l1.761,9.986
			c0.036,0.197,0.213,0.348,0.418,0.348c0.208,0,0.384-0.146,0.421-0.348l1.79-9.979l3.098,4.139l4.817,9.697
			c0.054,0.135,0.19,0.219,0.333,0.219h0.009l3.384-0.1c0.125-0.004,0.234-0.066,0.301-0.17c0.066-0.109,0.072-0.238,0.023-0.354
			L33.641,33.91l5.363,3.176c0.165,0.104,0.383,0.072,0.516-0.059c0.141-0.141,0.166-0.354,0.07-0.521l-3.49-5.952l6.832,0.979
			c0.194,0.021,0.383-0.076,0.455-0.255c0.076-0.182,0.012-0.389-0.14-0.506l-5.431-4.112l9.984-1.753
			c0.202-0.045,0.348-0.215,0.348-0.426C48.148,24.282,48.005,24.108,47.803,24.068 M35.336,22.536
			c-0.691,0.7-1.648,0.95-2.609,0.828c0.365,0.797,0.582,1.682,0.582,2.62c0,3.483-2.834,6.304-6.307,6.304
			c-3.477,0-6.305-2.82-6.305-6.304c0-0.938,0.213-1.822,0.582-2.62c-0.961,0.123-1.922-0.128-2.614-0.828
			c-1.245-1.242-1.119-3.395,0.286-4.795c1.402-1.404,3.548-1.53,4.8-0.28c0.714,0.713,0.966,1.726,0.799,2.719
			c0.75-0.315,1.58-0.5,2.452-0.5c0.871,0,1.699,0.185,2.454,0.5c-0.169-0.994,0.082-2.006,0.796-2.719
			c1.249-1.25,3.398-1.124,4.801,0.28C36.457,19.141,36.585,21.294,35.336,22.536"/>
	</g>
</g>
<g id="Layer_7" display="none">
	<path display="inline" fill="#43A5DC" d="M49.895,21.294c3.474-3.471,3.119-9.452-0.789-13.358
		c-3.901-3.905-9.885-4.257-13.354-0.784c-1.987,1.986-2.685,4.794-2.217,7.565c-2.103-0.891-4.408-1.385-6.829-1.385
		c-2.423,0-4.73,0.494-6.831,1.385c0.467-2.771-0.227-5.579-2.215-7.565C14.185,3.679,8.204,4.031,4.301,7.936
		c-3.905,3.906-4.259,9.888-0.787,13.358c1.915,1.916,4.594,2.628,7.266,2.262c-1.029,2.231-1.62,4.704-1.62,7.317
		c0,9.676,7.869,17.549,17.543,17.549c9.672,0,17.543-7.873,17.543-17.549c0-2.613-0.592-5.085-1.619-7.317
		C45.3,23.922,47.977,23.21,49.895,21.294z M27.633,25.31h4.438c0.423,1.435,0.712,2.993,0.789,4.637h-5.227V25.31z M25.776,29.947
		h-5.228c0.078-1.646,0.367-3.203,0.79-4.637h4.438V29.947z M27.633,23.455v-5.947c0.172,0.012,0.342,0.016,0.516,0.033
		c0.94,1.269,2.271,3.321,3.287,5.914H27.633z M25.776,17.508v5.947H21.97c1.019-2.593,2.346-4.645,3.291-5.914
		C25.43,17.524,25.605,17.52,25.776,17.508z M19.757,23.455h-4.221c1.605-2.408,3.971-4.257,6.747-5.231
		C21.407,19.625,20.484,21.396,19.757,23.455z M14.51,25.31h4.677c-0.382,1.443-0.638,2.995-0.705,4.637h-5.148
		C13.449,28.303,13.856,26.74,14.51,25.31z M13.334,31.805h5.155c0.08,1.639,0.347,3.193,0.735,4.639h-4.712
		C13.856,35.016,13.449,33.451,13.334,31.805z M20.554,31.805h5.222v4.639h-4.4C20.946,35.008,20.647,33.447,20.554,31.805z
		 M25.776,38.301v5.945c-0.164-0.012-0.329-0.014-0.489-0.029c-0.933-1.275-2.249-3.332-3.266-5.916H25.776z M27.633,44.246v-5.945
		h3.752c-1.019,2.584-2.334,4.641-3.265,5.916C27.959,44.232,27.794,44.234,27.633,44.246z M27.633,36.443v-4.639h5.221
		c-0.094,1.643-0.393,3.201-0.824,4.639H27.633z M34.916,31.805h5.156c-0.115,1.646-0.522,3.211-1.178,4.639h-4.711
		C34.572,34.998,34.838,33.443,34.916,31.805z M34.925,29.947c-0.067-1.643-0.323-3.196-0.704-4.637h4.676
		c0.653,1.43,1.062,2.993,1.178,4.637H34.925z M33.65,23.455c-0.729-2.059-1.65-3.83-2.526-5.229
		c2.774,0.972,5.14,2.823,6.746,5.229H33.65z M15.539,38.301H19.8c0.733,2.064,1.662,3.842,2.535,5.248
		C19.536,42.58,17.153,40.723,15.539,38.301z M31.07,43.549c0.873-1.406,1.803-3.184,2.537-5.248h4.262
		C36.253,40.721,33.87,42.58,31.07,43.549z"/>
</g>
<g id="Layer_8" display="none">
	<path display="inline" fill="#43A5DC" d="M26.704,0.627C12.164,0.627,0.332,12.459,0.332,27c0,14.539,11.833,26.373,26.373,26.373
		c14.544,0,26.372-11.834,26.372-26.373C53.076,12.459,41.248,0.627,26.704,0.627 M41.33,24.599
		c-1.262,1.695-3.416,2.37-5.592,2.011c0.568,1.26,0.908,2.628,0.908,4.099c0,5.486-4.451,9.943-9.942,9.943
		c-5.49,0-9.943-4.457-9.943-9.943c0-1.471,0.337-2.839,0.903-4.099c-2.174,0.359-4.334-0.315-5.582-2.011
		c-1.906-2.556-1.048-6.433,1.932-8.644c2.97-2.208,6.928-1.926,8.836,0.637c1,1.352,1.21,3.062,0.772,4.707
		c0.979-0.315,2-0.534,3.081-0.534c1.08,0,2.102,0.219,3.076,0.534c-0.438-1.644-0.225-3.355,0.777-4.707
		c1.899-2.563,5.858-2.845,8.838-0.637C42.371,18.166,43.234,22.043,41.33,24.599"/>
</g>
<g id="Layer_9" display="none">
	<g display="inline">
		<path fill="#43A5DC" d="M43.805,10.956h-2.053v1.571c0,2.109-1.714,3.826-3.816,3.826c-2.104,0-3.817-1.717-3.817-3.826v-1.571
			H19.295v1.571c0,2.107-1.718,3.824-3.828,3.824c-2.102,0-3.812-1.717-3.812-3.824v-1.571h-2.05c-2.668,0-4.845,2.886-4.845,5.553
			v26.304c0,2.713,2.244,4.842,5.121,4.842H44.08c2.471,0,4.566-2.215,4.566-4.842V16.509
			C48.646,13.842,46.479,10.956,43.805,10.956z M43.898,20.603v9.922h-9.782v-9.922H43.898z M31.672,42.764h-9.787v-9.787h9.787
			V42.764z M21.885,30.525v-9.922h9.787v9.922H21.885z M19.433,20.603v9.922H9.65v-9.922H19.433z M9.65,32.977h9.783v9.787H9.65
			V32.977z M34.116,42.764v-9.787h9.782v9.787H34.116z"/>
		<path fill="#43A5DC" d="M15.468,14.344c1.018,0,1.841-0.821,1.841-1.835V7.364c0-1.012-0.824-1.833-1.841-1.833
			c-1.01,0-1.83,0.822-1.83,1.833v5.145C13.638,13.522,14.458,14.344,15.468,14.344z"/>
		<path fill="#43A5DC" d="M37.936,14.344c1.018,0,1.838-0.825,1.838-1.835V7.36c0-1.01-0.82-1.832-1.838-1.832
			c-1.017,0-1.828,0.822-1.828,1.832v5.149C36.105,13.519,36.919,14.344,37.936,14.344z"/>
	</g>
</g>
<g id="Layer_10" display="none">
	<g display="inline">
		<g>
			<g>
				<path fill="#253B56" d="M36.384,28.909c-2.477,2.552-5.938,4.138-9.765,4.138c-3.802,0-7.24-1.562-9.715-4.08
					c-4.18,2.133-6.902,6.098-6.902,12.539v1.146c0,1.037,0.927,1.889,2.06,1.889h29.28c1.135,0,2.062-0.852,2.062-1.889v-1.146
					C43.402,35.006,40.635,31.023,36.384,28.909z"/>
			</g>
		</g>
		<g>
			<path fill="#253B56" d="M47.199,25.019c-1.924,1.977-4.571,3.231-7.514,3.348c2.459,1.824,4.769,4.752,5.59,9.396h5.967
				c0.925,0,1.684-0.693,1.684-1.541v-0.93C52.926,29.988,50.664,26.744,47.199,25.019z"/>
		</g>
		<g>
			<path fill="#253B56" d="M13.705,28.375c-2.965-0.085-5.648-1.33-7.594-3.313c-3.407,1.742-5.627,4.976-5.627,10.233v0.928
				c0,0.848,0.755,1.541,1.68,1.541H8.13C8.952,33.119,11.263,30.195,13.705,28.375z"/>
		</g>
		<path fill="#253B56" d="M26.619,11.572c-5.241,0-9.5,4.257-9.5,9.497c0,5.238,4.259,9.503,9.5,9.503
			c5.236,0,9.497-4.265,9.497-9.503C36.116,15.83,31.855,11.572,26.619,11.572z"/>
		<g>
			<path fill="#253B56" d="M39.236,8.641c-2.443,0-4.646,1.02-6.219,2.651c3.185,2.091,5.297,5.691,5.297,9.777
				c0,1.648-0.349,3.219-0.965,4.64c0.606,0.139,1.235,0.215,1.887,0.215c4.771,0,8.644-3.869,8.644-8.639
				C47.88,12.508,44.009,8.641,39.236,8.641z"/>
		</g>
		<g>
			<path fill="#253B56" d="M14.918,21.069c0-4.095,2.122-7.7,5.318-9.792c-1.57-1.624-3.769-2.636-6.205-2.636
				c-4.773,0-8.646,3.867-8.646,8.645c0,4.77,3.872,8.639,8.646,8.639c0.636,0,1.257-0.073,1.854-0.205
				C15.267,24.292,14.918,22.722,14.918,21.069z"/>
		</g>
	</g>
</g>
<g id="Layer_11" display="none">
	<path display="inline" fill="#253B56" d="M41.68,7.347c-0.006,1.352-0.521,2.696-1.558,3.725L24.52,26.584l15.507,15.605
		c2.056,2.064,2.045,5.406-0.022,7.459c-2.065,2.054-5.403,2.043-7.459-0.022L13.319,30.279c-0.987-0.993-1.537-2.336-1.533-3.733
		c0.004-1.399,0.562-2.742,1.556-3.727L32.688,3.59c2.065-2.052,5.403-2.042,7.459,0.022C41.174,4.647,41.684,5.998,41.68,7.347
		L41.68,7.347z"/>
</g>
<g>
	<g>
		<g>
			<path fill="#253B56" d="M51.827,16.702c-0.102-0.236-0.228-0.44-0.381-0.613L42.237,5.697c-0.117-0.134-0.256-0.256-0.421-0.354
				c-0.349-0.239-0.813-0.208-1.132,0.075l-0.039,0.04c-0.535,0.479-1.188,0.801-1.879,0.939c-1.423,0.294-2.9-0.201-3.836-1.242
				c-0.013-0.024-0.043-0.063-0.059-0.083c-0.283-0.314-0.747-0.397-1.12-0.196c-0.161,0.09-0.291,0.181-0.409,0.279
				c-0.004,0.004-0.007,0.004-0.012,0.004l-5.733,5.09c0.211,0.66,0.823,1.16,1.552,1.167c1.58,0.008,2.976,1.073,3.329,2.531
				l0.066,0.275v0.287v26.768l18.362-16.293c0.126-0.11,0.232-0.228,0.338-0.385c0.24-0.338,0.217-0.81-0.062-1.132
				c-1.455-1.67-1.288-4.233,0.33-5.667c0.02-0.007,0.06-0.047,0.071-0.059C51.879,17.479,51.973,17.059,51.827,16.702z"/>
		</g>
	</g>
	<path fill="#253B56" d="M29.142,13.809c-2.218-0.019-4.03-1.839-4.034-4.004c0.004-0.024,0.004-0.071,0.004-0.091
		c0-0.396-0.251-0.739-0.619-0.873c-0.246-0.083-0.481-0.118-0.717-0.118L9.894,8.743c-0.177,0-0.354,0.031-0.546,0.086
		C8.942,8.932,8.66,9.305,8.66,9.721L8.664,9.78c0.004,0.719-0.185,1.415-0.539,2.032c-0.719,1.266-2.067,2.044-3.474,2.048
		c-0.027-0.004-0.075-0.008-0.094-0.008c-0.429,0-0.802,0.299-0.896,0.715c-0.041,0.173-0.059,0.33-0.059,0.487
		c-0.004,0.004-0.002,0.008-0.004,0.008L3.66,41.94c0,0.205,0.031,0.429,0.106,0.66c0.134,0.401,0.471,0.665,0.9,0.629
		c2.232-0.004,4.06,1.812,4.072,4.045c0.004,0.42,0.287,0.778,0.691,0.889c0.193,0.047,0.372,0.07,0.547,0.07l13.885-0.027
		c0.236-0.004,0.476-0.04,0.712-0.13c0.364-0.13,0.613-0.473,0.613-0.856c0.004-0.7,0.189-1.393,0.538-1.989
		c0.712-1.238,2.037-2.021,3.46-2.048c0.326-0.008,0.625-0.184,0.782-0.459c0.032-0.056,0.06-0.118,0.079-0.178
		c0.07-0.215,0.102-0.412,0.109-0.605c0-0.023,0-0.038,0-0.055V14.508C30.054,14.104,29.565,13.812,29.142,13.809z M23.678,26.669
		c-0.531,0.841-1.581,1.176-2.651,0.963c0.344,0.652,0.542,1.394,0.542,2.192c0,2.594-2.101,4.688-4.693,4.688
		c-2.588,0-4.69-2.095-4.69-4.688c0-0.799,0.196-1.54,0.542-2.192c-1.069,0.213-2.119-0.122-2.649-0.963
		c-0.73-1.14-0.192-2.791,1.205-3.683c1.397-0.888,3.121-0.671,3.852,0.472c0.364,0.57,0.411,1.273,0.195,1.934
		c0.487-0.165,1.006-0.255,1.546-0.255c0.542,0,1.063,0.091,1.547,0.255c-0.216-0.66-0.169-1.364,0.196-1.934
		c0.731-1.143,2.454-1.36,3.852-0.472C23.866,23.878,24.404,25.529,23.678,26.669z"/>
</g>
</svg>
