<?xml version="1.0" encoding="utf-8"?>
<!-- Generator: Adobe Illustrator 16.0.4, SVG Export Plug-In . SVG Version: 6.00 Build 0)  -->
<!DOCTYPE svg PUBLIC "-//W3C//DTD SVG 1.1//EN" "http://www.w3.org/Graphics/SVG/1.1/DTD/svg11.dtd">
<svg version="1.1" id="Layer_1" xmlns="http://www.w3.org/2000/svg" xmlns:xlink="http://www.w3.org/1999/xlink" x="0px" y="0px"
	 width="28px" height="28px" viewBox="0 0 28 28" enable-background="new 0 0 28 28" xml:space="preserve">
<path fill="#263B56" d="M23.899,4.1c5.468,5.469,5.468,14.334,0,19.799c-5.469,5.467-14.332,5.467-19.799,0
	C-1.367,18.435-1.367,9.569,4.1,4.1C9.567-1.367,18.431-1.367,23.899,4.1 M15.619,15.619l4.737,0.026
	c0.889,0.005,1.605-0.71,1.598-1.596c-0.005-0.893-0.73-1.614-1.619-1.622l-4.738-0.026l-0.027-4.736
	c-0.005-0.89-0.73-1.617-1.619-1.623c-0.886-0.003-1.603,0.71-1.598,1.603l0.028,4.736l-4.736-0.026
	c-0.888-0.005-1.606,0.71-1.598,1.596c0.001,0.443,0.183,0.851,0.477,1.143c0.292,0.292,0.696,0.475,1.139,0.479l4.74,0.024
	l0.027,4.742c0.002,0.443,0.183,0.848,0.477,1.14c0.293,0.295,0.698,0.478,1.142,0.478c0.889,0.005,1.604-0.71,1.599-1.599
	L15.619,15.619z"/>
</svg>
