<?xml version="1.0" encoding="utf-8"?>
<!-- Generator: Adobe Illustrator 16.0.4, SVG Export Plug-In . SVG Version: 6.00 Build 0)  -->
<!DOCTYPE svg PUBLIC "-//W3C//DTD SVG 1.1//EN" "http://www.w3.org/Graphics/SVG/1.1/DTD/svg11.dtd">
<svg version="1.1" id="Layer_1" xmlns="http://www.w3.org/2000/svg" xmlns:xlink="http://www.w3.org/1999/xlink" x="0px" y="0px"
	 width="28px" height="28px" viewBox="0 0 28 28" enable-background="new 0 0 28 28" xml:space="preserve">
<path fill="#263B56" d="M0.157,14.255l3.555-4.573c0.144-0.188,0.366-0.294,0.601-0.294c0.233,0,0.456,0.109,0.6,0.296l3.537,4.571
	c0.177,0.229,0.207,0.538,0.078,0.798c-0.126,0.261-0.39,0.428-0.679,0.428H6.537c0.66,3.448,3.695,6.067,7.337,6.067
	c1.653,0,3.228-0.538,4.545-1.557c0.101-0.078,0.233-0.112,0.356-0.094c0.124,0.013,0.239,0.083,0.318,0.181l2.107,2.739
	c0.159,0.211,0.124,0.511-0.09,0.67c-2.099,1.618-4.602,2.474-7.238,2.474c-6.081,0-11.101-4.588-11.795-10.48h-1.32
	c-0.291,0-0.556-0.167-0.683-0.428C0.024,14.945,0,14.835,0,14.719C0,14.553,0.052,14.39,0.157,14.255"/>
<path fill="#263B56" d="M19.38,12.728c0.125-0.261,0.393-0.424,0.682-0.424h1.312c-0.662-3.45-3.697-6.068-7.337-6.068
	c-1.656,0-3.228,0.536-4.548,1.554C9.387,7.867,9.262,7.901,9.131,7.886c-0.125-0.015-0.24-0.083-0.317-0.184L6.707,4.966
	c-0.161-0.21-0.122-0.512,0.088-0.673c2.099-1.618,4.605-2.472,7.241-2.472c6.079,0,11.097,4.591,11.793,10.483h1.32
	c0.29,0,0.556,0.163,0.684,0.426c0.052,0.107,0.077,0.221,0.077,0.334c0,0.165-0.053,0.329-0.159,0.464l-3.555,4.572
	c-0.144,0.188-0.364,0.293-0.6,0.293c-0.233,0-0.455-0.107-0.599-0.295l-3.537-4.57C19.283,13.297,19.254,12.989,19.38,12.728"/>
</svg>
