<?xml version="1.0" encoding="utf-8"?>
<!-- Generator: Adobe Illustrator 16.0.4, SVG Export Plug-In . SVG Version: 6.00 Build 0)  -->
<!DOCTYPE svg PUBLIC "-//W3C//DTD SVG 1.1//EN" "http://www.w3.org/Graphics/SVG/1.1/DTD/svg11.dtd">
<svg version="1.1" id="Layer_1" xmlns="http://www.w3.org/2000/svg" xmlns:xlink="http://www.w3.org/1999/xlink" x="0px" y="0px"
	 width="28px" height="28px" viewBox="0 0 28 28" enable-background="new 0 0 28 28" xml:space="preserve">
<path fill="#263B56" d="M14,0C6.266,0,0,6.264,0,14c0,7.733,6.266,14,14,14c7.732,0,14-6.267,14-14C28,6.264,21.732,0,14,0
	 M16.569,21.151c0,1.42-1.15,2.568-2.569,2.568c-1.419,0-2.568-1.148-2.568-2.568v-5.988c0-1.414,1.149-2.562,2.568-2.562
	c1.419,0,2.569,1.147,2.569,2.562V21.151z M14,10.265c-1.546,0-2.796-1.256-2.796-2.798c0-1.548,1.25-2.803,2.796-2.803
	c1.544,0,2.8,1.255,2.8,2.803C16.8,9.009,15.544,10.265,14,10.265"/>
</svg>
