<?xml version="1.0" encoding="utf-8"?>
<!-- Generator: Adobe Illustrator 16.0.4, SVG Export Plug-In . SVG Version: 6.00 Build 0)  -->
<!DOCTYPE svg PUBLIC "-//W3C//DTD SVG 1.1//EN" "http://www.w3.org/Graphics/SVG/1.1/DTD/svg11.dtd">
<svg version="1.1" id="Layer_1" xmlns="http://www.w3.org/2000/svg" xmlns:xlink="http://www.w3.org/1999/xlink" x="0px" y="0px"
	 width="28px" height="28px" viewBox="0 0 28 28" enable-background="new 0 0 28 28" xml:space="preserve">
<path fill="#263B56" d="M24.191,20.293l-4.908-4.906c-0.019-0.023-0.05-0.04-0.07-0.06c2.066-3.613,1.57-8.292-1.515-11.375
	c-3.692-3.693-9.675-3.693-13.367,0c-3.69,3.692-3.69,9.675,0,13.368c3.083,3.084,7.763,3.581,11.372,1.514
	c0.023,0.023,0.04,0.052,0.063,0.074l4.906,4.905c0.91,0.908,2.395,0.908,3.305,0l0.214-0.214
	C25.103,22.689,25.103,21.203,24.191,20.293 M7.336,14.316c-2.037-2.033-2.037-5.328,0-7.363c2.03-2.031,5.328-2.031,7.36,0
	c2.033,2.035,2.033,5.33,0,7.363C12.664,16.347,9.366,16.347,7.336,14.316"/>
</svg>
