<?xml version="1.0" encoding="utf-8"?>
<!-- Generator: Adobe Illustrator 16.0.4, SVG Export Plug-In . SVG Version: 6.00 Build 0)  -->
<!DOCTYPE svg PUBLIC "-//W3C//DTD SVG 1.1//EN" "http://www.w3.org/Graphics/SVG/1.1/DTD/svg11.dtd">
<svg version="1.1" id="Layer_1" xmlns="http://www.w3.org/2000/svg" xmlns:xlink="http://www.w3.org/1999/xlink" x="0px" y="0px"
	 width="28px" height="28px" viewBox="0 0 28 28" enable-background="new 0 0 28 28" xml:space="preserve">
<path fill="#263B56" d="M13.999,0C6.269,0,0,6.27,0,13.999S6.269,28,13.999,28C21.731,28,28,21.729,28,13.999S21.731,0,13.999,0
	 M22.511,18.897c-0.33,0.577-0.937,0.898-1.557,0.898c-0.303,0-0.611-0.074-0.895-0.237l-6.957-4.005
	c-0.557-0.323-0.898-0.914-0.898-1.555V4.788c0-0.989,0.805-1.792,1.794-1.792c0.991,0,1.795,0.804,1.795,1.792v8.172l6.056,3.486
	C22.711,16.942,23.007,18.039,22.511,18.897"/>
</svg>
