<?xml version="1.0" encoding="utf-8"?><svg version="1.1" id="Layer_1" xmlns="http://www.w3.org/2000/svg" xmlns:xlink="http://www.w3.org/1999/xlink" x="0px" y="0px" viewBox="0 0 300 253.7" style="enable-background:new 0 0 300 253.7;" xml:space="preserve"><style type="text/css">.st0{fill:#cd2c38;}</style>
<g><path class="st0" d="M265.9,17.9c-27.2-20.2-63.3-17.6-80.7,5.8c-9.1,12.3-11.1,28-7.1,43c-8.9-2.9-18.3-4.9-28.1-4.9
		c-9.9,0-19.2,2-28.1,4.9c4-15,2.1-30.7-7.1-43c-17.4-23.4-53.6-26-80.7-5.8C6.8,38-1,73.5,16.4,96.9c11.4,15.5,31.1,21.6,51,18.3
		c-5.2,11.5-8.2,24-8.2,37.5c0,50.1,40.7,90.8,90.9,90.8c50.2,0,90.9-40.7,90.9-90.8c0-13.4-3.1-26-8.3-37.5
		c19.9,3.3,39.6-2.9,51.1-18.3C301,73.5,293.2,38,265.9,17.9z"/></g></svg>
