<?xml version="1.0" encoding="utf-8"?>
<!-- Generator: Adobe Illustrator 19.1.0, SVG Export Plug-In . SVG Version: 6.00 Build 0)  -->
<svg version="1.1" id="Layer_1" xmlns="http://www.w3.org/2000/svg" xmlns:xlink="http://www.w3.org/1999/xlink" x="0px" y="0px"
	 width="20px" height="20px" viewBox="-110 116 20 20" style="enable-background:new -110 116 20 20;" xml:space="preserve">
<style type="text/css">
	.st0{fill:#D5D5E0;}
	.st1{fill:#8596AA;}
</style>
<g>
	<path class="st0" d="M-108.2,135.5c-0.7,0-1.3-0.6-1.3-1.3v-16.4c0-0.7,0.6-1.3,1.3-1.3h16.4c0.7,0,1.3,0.6,1.3,1.3v16.4
		c0,0.7-0.6,1.3-1.3,1.3H-108.2z"/>
	<path class="st1" d="M-91.8,117c0.5,0,0.8,0.4,0.8,0.8v16.4c0,0.5-0.4,0.8-0.8,0.8h-16.4c-0.5,0-0.8-0.4-0.8-0.8v-16.4
		c0-0.5,0.4-0.8,0.8-0.8H-91.8 M-91.8,116h-16.4c-1,0-1.8,0.8-1.8,1.8v16.4c0,1,0.8,1.8,1.8,1.8h16.4c1,0,1.8-0.8,1.8-1.8v-16.4
		C-90,116.8-90.8,116-91.8,116L-91.8,116z"/>
</g>
</svg>
