<svg id="Layer_1" data-name="Layer 1" xmlns="http://www.w3.org/2000/svg" viewBox="0 0 250 250">
  <defs>
    <style>
      .cls-1 {
        fill: #ebf4fc;
      }

      .cls-2 {
        fill: #fff;
      }

      .cls-3, .cls-5 {
        fill: none;
        stroke-linecap: round;
        stroke-linejoin: round;
        stroke-width: 3px;
      }

      .cls-3 {
        stroke: #263b55;
      }

      .cls-4 {
        fill: #253b56;
      }

      .cls-5 {
        stroke: #253b56;
      }
    </style>
  </defs>
  <title>art_mickeythumbsupMickey Thumbs Up</title>
  <g>
    <ellipse class="cls-1" cx="131.69" cy="143.5" rx="101.69" ry="102.07"/>
    <polygon class="cls-2" points="16.4 132.23 44.83 129.33 44.83 143.16 16.4 149.1 16.4 132.23"/>
    <path class="cls-3" d="M30.49,183.37l-1.15.19a106.54,106.54,0,1,0-6.77-63"/>
    <path class="cls-3" d="M21.3,133.57a107.06,107.06,0,0,0,8.8,51.57"/>
    <polyline class="cls-3" points="22.57 133.3 40.89 131.13 55.02 139.49 68.31 177.57 29.34 183.56"/>
    <path class="cls-4" d="M41.84,139.06,21,142.75a87.91,87.91,0,0,0,2.2,23.39c1,4.31,6.86,19,6.86,19l36.52-7.26-5.12-28.39Z"/>
    <path class="cls-2" d="M211.75,115.12c-7.8-11.38-23-16.34-35.56-20.28a189.43,189.43,0,0,0-33.28-7.42c27.57-39.56,7.2-67.13,7.2-67.13-7.8-13.36-23.35-24.78-38-13.16-11.53,9.18-10.44,27.29-5.2,39.53,7.19,16.78-12,31.17-12,31.17-17.25,12.32-25.63,24.63-29.7,33.7L65,110.19s-30-8.39-25.17,39.56a135,135,0,0,0,3.05,18.51c2.3,9.51,5.81,20.81,13.86,27.08s17.8,2.94,24.9-2.89h0a43.93,43.93,0,0,0,4.94,4.05c31.16,24,52.74,21.57,52.74,21.57,38.36,0,38.36-31.16,38.36-31.16,19.82-1.65,24.44-21.73,21.57-38.36l-4.33-1.14a19.53,19.53,0,0,0,13.39-5A20.65,20.65,0,0,0,211.75,115.12Z"/>
    <path class="cls-5" d="M65,110.19s-30-8.39-25.17,39.56a135,135,0,0,0,3.05,18.51c2.3,9.51,5.81,20.81,13.86,27.08s17.22,3.41,24.32-2.43"/>
    <path class="cls-5" d="M177.68,186.91s0,31.16-38.36,31.16c0,0-21.58,2.4-52.74-21.57a43.93,43.93,0,0,1-4.94-4.05A65.5,65.5,0,0,1,65,167.73"/>
    <path class="cls-4" d="M89.88,134.24c2.61,0,6.3-.07,9.87-.14l2.31,0c7.8-.14,12.31-.3,14.28-1.85a2,2,0,0,0,.86-2c-.21-1.13-1.44-2.47-6-2.47a87.22,87.22,0,0,0-10.2.92c-3.62.47-7.45,1-10.49,1.53-1.51.25-2.71.46-3.58.64-1.24.25-2.94.6-2.84,1.83v0C84.23,134.24,86.48,134.24,89.88,134.24Z"/>
    <path class="cls-4" d="M89.41,170.41c2.47.81,6,1.89,9.42,2.94L101,174c7.45,2.29,11.78,3.54,14.15,2.68a2,2,0,0,0,1.43-1.61c.15-1.14-.6-2.8-5-4.23a87.68,87.68,0,0,0-10-2.3c-3.59-.68-7.4-1.34-10.45-1.81-1.51-.23-2.72-.4-3.6-.51-1.26-.14-3-.34-3.27.85a.1.1,0,0,1,0,0C84,168.65,86.18,169.35,89.41,170.41Z"/>
    <path class="cls-4" d="M90.29,151.54c2.92.43,7.08,1,11.09,1.5l2.6.34c8.76,1.16,13.83,1.75,16.28.54a1.86,1.86,0,0,0,1.25-1.81c-.07-1.15-1.25-2.68-6.42-3.45a111.45,111.45,0,0,0-11.57-.78c-4.13-.14-8.5-.22-12-.23-1.73,0-3.11,0-4.12,0-1.42,0-3.37.11-3.45,1.34v0C84,150.6,86.48,151,90.29,151.54Z"/>
    <path class="cls-5" d="M61.4,125.77s0-6,4.2-15,12.58-21,29.37-33c0,0,19.17-14.39,12-31.17-5.24-12.24-6.33-30.35,5.2-39.53,14.61-11.62,30.16-.2,38,13.16,0,0,20.37,27.57-7.2,67.13a189.43,189.43,0,0,1,33.28,7.42c12.53,3.94,27.76,8.9,35.56,20.28a20.65,20.65,0,0,1-3.44,27.26,22.67,22.67,0,0,1-10.81,5.07c-7,1-14.59-1.23-17.68-2.39a47.16,47.16,0,0,1-12.47-6.53,53.76,53.76,0,0,0,11.24,6.06c10.52,3.72,13.74,3.65,21.74,2.31,1.64,17.78-2.83,38.36-22.65,40,0,0-18.68-.45-24.94-6.72"/>
  </g>
</svg>
