<svg id="Layer_1" data-name="Layer 1" xmlns="http://www.w3.org/2000/svg" viewBox="0 0 250 250">
  <defs>
    <style>
      .cls-1 {
        fill: #d5d5e0;
        opacity: 0.2;
      }

      .cls-10, .cls-11, .cls-15, .cls-2, .cls-6, .cls-9 {
        fill: none;
      }

      .cls-11, .cls-12, .cls-13, .cls-14, .cls-15, .cls-2, .cls-3, .cls-6, .cls-8 {
        stroke: #253b56;
      }

      .cls-10, .cls-11, .cls-13, .cls-14, .cls-15, .cls-2, .cls-8, .cls-9 {
        stroke-linecap: round;
      }

      .cls-10, .cls-11, .cls-12, .cls-13, .cls-2, .cls-3, .cls-6, .cls-9 {
        stroke-miterlimit: 10;
      }

      .cls-10, .cls-2, .cls-3, .cls-6, .cls-8 {
        stroke-width: 3px;
      }

      .cls-12, .cls-14, .cls-3, .cls-4, .cls-8 {
        fill: #fff;
      }

      .cls-5 {
        fill: #253b56;
      }

      .cls-7 {
        fill: #dd3844;
      }

      .cls-14, .cls-15, .cls-8 {
        stroke-linejoin: round;
      }

      .cls-10, .cls-9 {
        stroke: #8596aa;
        opacity: 0.5;
      }

      .cls-9 {
        stroke-width: 3.98px;
      }

      .cls-11, .cls-12, .cls-13, .cls-14, .cls-15 {
        stroke-width: 2px;
      }

      .cls-13 {
        fill: #fcfcfc;
      }
    </style>
  </defs>
  <title>art_sessionexpiredclockringingArtboard 1</title>
  <g>
    <ellipse class="cls-1" cx="127.23" cy="187.31" rx="80.7" ry="35.47"/>
    <g>
      <line class="cls-2" x1="202.04" y1="178.1" x2="224.77" y2="178.1"/>
      <line class="cls-2" x1="42.69" y1="178.1" x2="195.78" y2="178.1"/>
      <line class="cls-2" x1="27.62" y1="178.1" x2="34.57" y2="178.1"/>
    </g>
    <g>
      <line class="cls-2" x1="102.3" y1="195.49" x2="194.62" y2="195.49"/>
      <line class="cls-2" x1="95.34" y1="195.49" x2="97.66" y2="195.49"/>
      <line class="cls-2" x1="61.25" y1="195.49" x2="91.17" y2="195.49"/>
    </g>
    <path class="cls-3" d="M73.64,154.79h0a8.07,8.07,0,0,1,4.06,10.67L72,178.21a8.06,8.06,0,0,1-10.67,4.06h0a8.07,8.07,0,0,1-4.06-10.67L63,158.85A8,8,0,0,1,73.64,154.79Z"/>
    <path class="cls-3" d="M160.15,193.87h0a8.17,8.17,0,0,1-9.51-6.49l-2.55-13.69a8.17,8.17,0,0,1,6.5-9.51h0a8.17,8.17,0,0,1,9.51,6.5l2.55,13.68A8.16,8.16,0,0,1,160.15,193.87Z"/>
    <path class="cls-4" d="M55.2,83.7S37.92,68.5,47.08,51.57c0,0,4.52-8.93,18.21-16.81a24.19,24.19,0,0,1,32.93,8.81c.12.12.12.23.23.35h0a2.17,2.17,0,0,1-.69,2.78"/>
    <path class="cls-5" d="M58.68,84S41.4,68.85,50.56,51.92c0,0,4.52-9.05,18.21-16.82a24.77,24.77,0,0,1,13.1-3.24c8.35,2.2,12.41,4.4,16.58,11.94h0a2.18,2.18,0,0,1-.69,2.79"/>
    <path class="cls-6" d="M55.2,83.7S37.92,68.5,47.08,51.57c0,0,4.52-8.93,18.21-16.81a24.19,24.19,0,0,1,32.93,8.81c.12.12.12.23.23.35h0a2.17,2.17,0,0,1-.69,2.78"/>
    <path class="cls-4" d="M151.34,54.7s15.19-17.28,32.12-8.11c0,0,8.93,4.52,16.82,18.2a24.22,24.22,0,0,1-8.82,32.94c-.11.12-.23.12-.34.23h0a2.19,2.19,0,0,1-2.79-.69"/>
    <path class="cls-5" d="M154.12,56.68s15.54-16.59,32.47-7.43c0,0,6.85,3.13,14.73,16.82,2.32,4.17,2.32,11.25,2.09,15.66-2.09,8.23-3.83,11.59-11.48,15.65l2.78-.23c-1,.58-5,.46-5.56-.46"/>
    <path class="cls-6" d="M151.34,54.7s15.19-17.28,32.12-8.11c0,0,8.93,4.52,16.82,18.2a24.22,24.22,0,0,1-8.82,32.94c-.11.12-.23.12-.34.23h0a2.19,2.19,0,0,1-2.79-.69"/>
    <circle class="cls-4" cx="119.79" cy="115.71" r="71.9"/>
    <path class="cls-7" d="M190.07,131c-9.16,38.62-43.49,57.87-77.23,56.25-39.44-4.64-66.69-36.07-62-75.5A71.9,71.9,0,0,1,182,80.1C191.12,93.79,192.16,113.27,190.07,131Z"/>
    <circle class="cls-2" cx="119.79" cy="115.71" r="71.9"/>
    <circle class="cls-8" cx="119.56" cy="118.03" r="57.41"/>
    <path class="cls-2" d="M114.23,44a6.42,6.42,0,0,1-3.37-6.37h0a6.39,6.39,0,0,1,7.08-5.57l21.92,2.55a6.36,6.36,0,0,1,5.56,7.07h0a6.39,6.39,0,0,1-4.4,5.34"/>
    <line class="cls-9" x1="125.48" y1="67" x2="124.32" y2="76.85"/>
    <line class="cls-10" x1="99.15" y1="70.94" x2="102.17" y2="77.78"/>
    <line class="cls-10" x1="78.39" y1="87.41" x2="84.42" y2="91.93"/>
    <line class="cls-9" x1="68.53" y1="112.11" x2="78.39" y2="113.27"/>
    <line class="cls-10" x1="72.36" y1="138.32" x2="79.32" y2="135.42"/>
    <line class="cls-10" x1="88.83" y1="159.2" x2="93.35" y2="153.16"/>
    <line class="cls-9" x1="113.53" y1="168.94" x2="114.69" y2="159.2"/>
    <line class="cls-10" x1="139.86" y1="165.11" x2="136.84" y2="158.27"/>
    <line class="cls-10" x1="160.73" y1="148.64" x2="154.7" y2="144.12"/>
    <line class="cls-9" x1="170.47" y1="123.94" x2="160.73" y2="122.78"/>
    <line class="cls-10" x1="166.65" y1="97.73" x2="159.69" y2="100.63"/>
    <line class="cls-10" x1="150.18" y1="76.85" x2="145.66" y2="82.89"/>
    <path class="cls-5" d="M123.85,119.3s-7.54-10.09,2-29.69L124,86.13l-4.52,4s-8.82,10.67-1.51,32.58L122,125Z"/>
    <path class="cls-6" d="M123.62,119.3s-7.54-10.09,2-29.69l-1.85-3.48-6.85,3.6S107.62,100.4,115,122.2l6.73,2.78Z"/>
    <g>
      <path class="cls-4" d="M125.08,95.11c6.31-1.33,11.86-7.75,11-14.48a6,6,0,0,0-6.83-5,5.6,5.6,0,0,0-1.81.63l4-.53c1.12-7.45,1.38-11.15-1.91-17.66a9.29,9.29,0,0,0-4.49-4c-2-.9-1.63,1.12-3.2,2.82-.79.85,1,3.6-.17,11.86L121,69c-3.62-1.07-9,3.28-8.71,6.57l6.28-1.11c-4.86-2.59-8.69,3-8.79,7.37-.08,4.19,1.85,8.11,3.7,11.68"/>
      <g>
        <path class="cls-11" d="M125.07,95.23c6.31-1.34,11.86-7.76,11-14.48a6,6,0,0,0-6.83-5,5.84,5.84,0,0,0-1.81.63c-2.83,1.46-6.23,3.91-5.28,7.15A4,4,0,0,0,127.3,86c.12-.1.24-.09.48-.18l3.06-1.44"/>
        <path class="cls-11" d="M114,83.85a4.51,4.51,0,0,0,6,1.2c3.37-2.22,1.77-7-.81-9.17-4.41-3.6-9.44,1.13-9.59,6-.08,4.18,1.85,8.11,3.7,11.67"/>
        <path class="cls-11" d="M127.23,76.46c-.72-3.22-3.07-6.49-6.24-7.39-3.5-1.06-8.43,2.75-9.1,7"/>
        <path class="cls-11" d="M131.38,75.72c1.11-7.45,1.49-11.14-1.8-17.65a8,8,0,0,0-3.48-3.62,3.05,3.05,0,0,0-2.67,0A4.29,4.29,0,0,0,122.21,56a14.28,14.28,0,0,0-.29,6.26,17.37,17.37,0,0,1-.2,6.5"/>
      </g>
      <path class="cls-12" d="M124.92,97.89a3.46,3.46,0,0,0,.57-1.1,2.44,2.44,0,0,0-1.29-2.12,18.64,18.64,0,0,0-5.26-2.17,7.6,7.6,0,0,0-3.56-.48c-.94.14-2.51.68-2.75,1.82-.44,2,1.77,3.21,3.34,3.83,1.78.77,4,1.81,6,1.67A7,7,0,0,0,124.92,97.89Z"/>
    </g>
    <polygon class="cls-5" points="147.74 102.48 121.65 120 123.5 124.06 125.59 126.38 155.16 105.5 151.57 100.63 147.74 102.48"/>
    <polygon class="cls-6" points="147.05 99.35 115.73 120.46 117.13 125.33 121.07 129.62 157.49 104.11 150.88 97.5 147.05 99.35"/>
    <g>
      <path class="cls-4" d="M142.26,99.86c-.91-5.56,2.64-12.09,8.32-13.46a5.38,5.38,0,0,1,6.28,4A8.61,8.61,0,0,1,157,92l-.77-3.42c5.7-3.22,13-3.65,19.32-3A7.21,7.21,0,0,1,180,87.47a3,3,0,0,1,0,4.33c-.15.08-.33.27-.47.36-4,2.71-11.95-2.23-14,3.62l-.49-.88c2,2.64,1.46,7.55-1.35,8.37l-2.41-4.62c3,2.56,2.23,7.9.39,11a4.64,4.64,0,0,1-2.13,1.87c-3.93,1.73-8.34-2.33-12.16-2.78"/>
      <path class="cls-13" d="M156.36,88.64c5.74-3.33,13.2-4.44,19.54-3.77,2.44.15,6.15,1.91,5.16,4.94a3.69,3.69,0,0,1-.77,1.44c-1.81,2-4.4,2.29-6.87,2.43-2.74.17-5.2.08-7.39,1.95"/>
      <path class="cls-11" d="M142.52,99.8c-.91-5.55,2.52-12.11,8.24-13.59a5.26,5.26,0,0,1,6.28,4,8.61,8.61,0,0,1,.16,1.65c-.28,2.76-1.27,6.3-4.16,6.48a3.64,3.64,0,0,1-3.73-3.39c0-.11-.05-.26,0-.37l.19-2.91"/>
      <path class="cls-11" d="M155.3,105.23a4,4,0,0,1-2.93-4.52c.7-3.38,5.12-3.75,7.67-2.29s2.9,4.63,2.68,7.15a8.14,8.14,0,0,1-4.53,6.5c-3,1.39-6.46.66-9.56.29"/>
      <path class="cls-11" d="M157.13,92.06a8.52,8.52,0,0,1,8,2.72c2,2.54,1,7.43-2.33,9.21"/>
      <path class="cls-12" d="M140.39,100.81a2.48,2.48,0,0,1,.71-.79,2,2,0,0,1,2.12.35,22.11,22.11,0,0,1,4.68,4.88c1.17,1.56,2.71,3.1,3.26,5.1a2.35,2.35,0,0,1-.67,2.4c-2.36,1.81-5.58-2.54-6.74-4.1s-2.91-3.28-3.52-5.05A4.37,4.37,0,0,1,140.39,100.81Z"/>
    </g>
    <circle class="cls-14" cx="119.68" cy="121.97" r="10.55"/>
    <path class="cls-7" d="M125.71,123.48c-.35,3.36-2.44,5.1-5.8,4.63-2.09-.23-3.36.24-4.29-1.5a6.16,6.16,0,0,1,2.67-8.35,6.38,6.38,0,0,1,6.95.81C126.64,120.34,125.94,121.39,125.71,123.48Z"/>
    <circle class="cls-15" cx="119.68" cy="121.97" r="6.26"/>
    <path class="cls-10" d="M40.25,27.22A26.11,26.11,0,0,0,17.63,56.44h0"/>
    <path class="cls-10" d="M42.22,38.82A18.42,18.42,0,0,0,29.11,61.43h0"/>
    <path class="cls-10" d="M227.17,68a26.17,26.17,0,0,1-4.75,36.65"/>
    <path class="cls-10" d="M217.55,74.77a18.4,18.4,0,0,1-6.73,25.16"/>
  </g>
</svg>
