<svg id="Clock" xmlns="http://www.w3.org/2000/svg" viewBox="0 0 250 250">
  <defs>
    <style>
      .cls-1 {
        fill: #d5d5e0;
        opacity: 0.2;
      }

      .cls-10, .cls-11, .cls-12, .cls-2, .cls-6, .cls-9 {
        fill: none;
      }

      .cls-11, .cls-12, .cls-13, .cls-14, .cls-2, .cls-3, .cls-6, .cls-8 {
        stroke: #253b56;
      }

      .cls-10, .cls-12, .cls-14, .cls-2, .cls-6, .cls-8, .cls-9 {
        stroke-linecap: round;
      }

      .cls-10, .cls-11, .cls-12, .cls-13, .cls-2, .cls-3, .cls-9 {
        stroke-miterlimit: 10;
      }

      .cls-10, .cls-2, .cls-3, .cls-6, .cls-8 {
        stroke-width: 3px;
      }

      .cls-13, .cls-14, .cls-3, .cls-4, .cls-8 {
        fill: #fff;
      }

      .cls-5 {
        fill: #253b56;
      }

      .cls-14, .cls-6, .cls-8 {
        stroke-linejoin: round;
      }

      .cls-7 {
        fill: #dd3844;
      }

      .cls-10, .cls-9 {
        stroke: #8596aa;
        opacity: 0.5;
      }

      .cls-9 {
        stroke-width: 4.34px;
      }

      .cls-11, .cls-12, .cls-13, .cls-14 {
        stroke-width: 2px;
      }
    </style>
  </defs>
  <title>art_sessionexpiredclockArtboard 1</title>
  <g>
    <ellipse class="cls-1" cx="127.26" cy="190.23" rx="84.54" ry="37.16"/>
    <g>
      <line class="cls-2" x1="211.8" y1="182.93" x2="237.81" y2="182.93"/>
      <line class="cls-2" x1="29.45" y1="182.93" x2="204.63" y2="182.93"/>
      <line class="cls-2" x1="12.19" y1="182.93" x2="20.16" y2="182.93"/>
    </g>
    <g>
      <line class="cls-2" x1="103.16" y1="204.16" x2="203.3" y2="204.16"/>
      <line class="cls-2" x1="90.61" y1="204.16" x2="96.93" y2="204.16"/>
      <line class="cls-2" x1="50.68" y1="204.16" x2="84.92" y2="204.16"/>
    </g>
    <path class="cls-3" d="M172.51,181.34h0a9.34,9.34,0,0,1-10.88-7.43l-2.92-15.67a9.34,9.34,0,0,1,7.43-10.88h0A9.34,9.34,0,0,1,177,154.79l2.92,15.66A9.41,9.41,0,0,1,172.51,181.34Z"/>
    <path class="cls-3" d="M81.07,168.2h0a9.41,9.41,0,0,1,6.11,11.68L82.4,195.14a9.4,9.4,0,0,1-11.68,6.1h0a9.39,9.39,0,0,1-6.1-11.67l4.77-15.27A9.3,9.3,0,0,1,81.07,168.2Z"/>
    <path class="cls-3" d="M184.59,201.11h0a9.3,9.3,0,0,1-11.68-6.1l-4.78-15.27a9.29,9.29,0,0,1,6.11-11.67h0a9.29,9.29,0,0,1,11.68,6.1l4.77,15.26A9.35,9.35,0,0,1,184.59,201.11Z"/>
    <path class="cls-4" d="M50.68,89.76s-21.63-15-13.54-35.43c0,0,4-10.75,18.45-21.63a27.7,27.7,0,0,1,38.62,5.7c.13.14.13.27.27.4h0a2.62,2.62,0,0,1-.4,3.32"/>
    <path class="cls-5" d="M54.66,89.76S33,74.77,41.12,54.33c0,0,4-10.75,18.45-21.63A28.63,28.63,0,0,1,74,27.39c9.69,1.33,14.73,3.32,20.3,11.41h0a2.6,2.6,0,0,1-.4,3.32"/>
    <path class="cls-6" d="M50.68,89.76s-21.63-15-13.54-35.43c0,0,4-10.75,18.45-21.63a27.7,27.7,0,0,1,38.62,5.7c.13.14.13.27.27.4h0a2.62,2.62,0,0,1-.4,3.32"/>
    <path class="cls-4" d="M156.06,44s15-21.63,35.43-13.54c0,0,10.75,4,21.63,18.45a27.7,27.7,0,0,1-5.7,38.62c-.14.13-.27.13-.4.26h0a2.62,2.62,0,0,1-3.32-.39"/>
    <path class="cls-5" d="M159.51,46s15.52-21,36-12.74c0,0,8.1,2.65,19,17.12,3.18,4.38,4.11,12.47,4.51,17.52-1.33,9.68-2.79,13.67-10.88,19.37l.32.14a2.91,2.91,0,0,1-3.64-.54"/>
    <path class="cls-6" d="M156.06,44s15-21.63,35.43-13.54c0,0,10.75,4,21.63,18.45a27.7,27.7,0,0,1-5.7,38.62c-.14.13-.27.13-.4.26h0a2.62,2.62,0,0,1-3.32-.39"/>
    <circle class="cls-4" cx="128.32" cy="117.63" r="82.28"/>
    <path class="cls-7" d="M210.2,125.73c-5.31,45.12-41.8,71.53-80.29,74.19-45.39,0-80.56-32.25-80.56-77.64A82.29,82.29,0,0,1,194.28,68.93C206.49,83.26,210.2,105.29,210.2,125.73Z"/>
    <circle class="cls-8" cx="127.68" cy="119.71" r="65.38"/>
    <circle class="cls-6" cx="128.32" cy="117.63" r="82.28"/>
    <path class="cls-8" d="M63,126.86a64.8,64.8,0,0,1-.33-6.57"/>
    <path class="cls-2" d="M112.52,36.81a7.5,7.5,0,0,1-4.77-6.9h0a7.37,7.37,0,0,1,7.3-7.3h25.21a7.37,7.37,0,0,1,7.3,7.3h0a7.25,7.25,0,0,1-4.38,6.64"/>
    <line class="cls-9" x1="128.32" y1="61.5" x2="128.32" y2="72.78"/>
    <line class="cls-10" x1="98.99" y1="69.46" x2="103.23" y2="76.89"/>
    <line class="cls-10" x1="77.49" y1="90.96" x2="84.92" y2="95.21"/>
    <line class="cls-9" x1="69.66" y1="120.29" x2="80.81" y2="120.29"/>
    <line class="cls-10" x1="77.49" y1="149.62" x2="84.92" y2="145.37"/>
    <line class="cls-10" x1="98.99" y1="171.12" x2="103.23" y2="163.69"/>
    <line class="cls-9" x1="128.32" y1="178.95" x2="128.32" y2="167.67"/>
    <line class="cls-10" x1="157.65" y1="171.12" x2="153.4" y2="163.69"/>
    <line class="cls-10" x1="179.15" y1="149.62" x2="171.72" y2="145.37"/>
    <line class="cls-9" x1="186.98" y1="120.29" x2="175.83" y2="120.29"/>
    <line class="cls-10" x1="179.15" y1="90.96" x2="171.72" y2="95.21"/>
    <line class="cls-10" x1="157.65" y1="69.46" x2="153.4" y2="76.89"/>
    <path class="cls-5" d="M125.93,122s-10.09,10.22-34,2.79l-3.71,2.66L93.41,132s13.54,8.23,37.16-3.72l2-4.91Z"/>
    <path class="cls-11" d="M125.93,119s-10.09,10.22-34,2.79l-3.71,2.65,5.17,7.17s13.54,8.76,37.16-3.19l2-8.09Z"/>
    <g>
      <path class="cls-4" d="M98.86,121.75c-2.26-7-10.22-12.61-17.79-10.88a6.86,6.86,0,0,0-4.91,8.36,6.72,6.72,0,0,0,.93,2L76,116.71c-8.63-.4-12.87-.27-19.91,4.24a10.61,10.61,0,0,0-4,5.58c-.8,2.39,1.46,1.72,3.58,3.31,1.06.8,4-1.59,13.54-1.19l.27.8c-.8,4.24,4.77,9.82,8.49,9.15l-2-7c-2.39,5.84,4.38,9.55,9.42,9.16,4.78-.4,9-3.06,12.87-5.58"/>
      <g>
        <path class="cls-12" d="M99,121.75c-2.26-7-10.22-12.61-17.79-10.88a6.86,6.86,0,0,0-4.91,8.36,7,7,0,0,0,.93,2c2,3,5.18,6.63,8.76,5.17a4.55,4.55,0,0,0,2.26-6.1c-.13-.13-.13-.27-.27-.53l-2-3.32"/>
        <path class="cls-12" d="M87.31,135.68a5.16,5.16,0,0,0,.66-7c-2.92-3.58-8.23-1.19-10.35,2-3.58,5.44,2.39,10.62,8,10.22,4.78-.4,9-3.05,12.88-5.57"/>
        <path class="cls-12" d="M77.36,121.48c-3.59,1.2-7,4.25-7.7,8-.8,4.11,4.11,9.29,9,9.55"/>
        <path class="cls-12" d="M76,116.84c-8.63-.4-12.87-.4-19.91,4.11a9.18,9.18,0,0,0-3.71,4.38,3.5,3.5,0,0,0,.26,3,5,5,0,0,0,2,1.2,16.33,16.33,0,0,0,7.17-.4,19.92,19.92,0,0,1,7.43-.53"/>
      </g>
      <path class="cls-13" d="M102,121.62a4.08,4.08,0,0,0-1.33-.54,2.8,2.8,0,0,0-2.25,1.73,20.85,20.85,0,0,0-1.86,6.24,8.54,8.54,0,0,0-.13,4.11c.26,1.06,1.06,2.79,2.39,2.92,2.38.27,3.45-2.39,4-4.25.66-2.12,1.59-4.77,1.19-7A8,8,0,0,0,102,121.62Z"/>
    </g>
    <polygon class="cls-5" points="150.75 95.47 128.85 123.87 132.3 127.59 135.35 129.31 159.9 96 154.2 92.02 150.75 95.47"/>
    <g>
      <polygon class="cls-11" points="149.02 92.29 122.61 126.39 125.8 131.3 131.64 134.49 162.03 93.61 152.34 88.83 149.02 92.29"/>
      <g>
        <path class="cls-4" d="M144.24,94.14c-2.65-5.7-.79-13.8,4.91-17a6,6,0,0,1,8,2.39,9.34,9.34,0,0,1,.66,1.72l-1.86-3.45c5.18-5.18,12.88-7.83,19.91-9a8,8,0,0,1,5.31.66,3.37,3.37,0,0,1,1.33,4.64c-.14.14-.27.4-.4.53-3.45,4.12-13.54,1.2-13.94,8.1l-.79-.8c2.92,2.26,3.84,7.7,1.06,9.43l-4-4.25c4,1.86,4.77,7.83,3.71,11.68a5.15,5.15,0,0,1-1.72,2.65c-3.72,3.06-9.69,0-13.94.67"/>
        <path class="cls-12" d="M144.51,94c-2.66-5.71-.93-13.8,4.78-17.12a5.89,5.89,0,0,1,8,2.39,9.16,9.16,0,0,1,.66,1.73c.53,3,.53,7.16-2.52,8.22a4.06,4.06,0,0,1-5-2.52c0-.13-.13-.26-.13-.4l-.67-3.18"/>
        <path class="cls-12" d="M159.9,96a4.47,4.47,0,0,1-4.51-4c-.26-3.85,4.38-5.57,7.57-4.78s4.51,4.12,5,6.9a9.1,9.1,0,0,1-2.92,8.36c-2.79,2.39-6.77,2.66-10.22,3.19"/>
        <path class="cls-12" d="M157.91,81.27a9.55,9.55,0,0,1,9.43.53c2.92,2.12,3.31,7.7.26,10.62"/>
        <path class="cls-12" d="M156.06,77.82c5.17-5.31,12.87-8.75,19.9-9.94,2.67-.57,7.2.21,7,3.77a4,4,0,0,1-.4,1.78c-1.33,2.71-4,3.79-6.65,4.69-2.91,1-5.59,1.64-7.38,4.32"/>
        <path class="cls-13" d="M142.52,95.74a2.63,2.63,0,0,1,.53-1.07,2.23,2.23,0,0,1,2.39-.26,24.8,24.8,0,0,1,6.5,3.85c1.73,1.33,3.85,2.52,5,4.51a2.64,2.64,0,0,1,0,2.79c-2,2.65-6.76-1.06-8.49-2.39s-4.11-2.66-5.31-4.38A5,5,0,0,1,142.52,95.74Z"/>
      </g>
    </g>
    <g>
      <circle class="cls-14" cx="128.98" cy="124.67" r="12.08"/>
      <path class="cls-7" d="M136,125.73c0,4-2.13,6.1-6.11,6.1-2.52,0-3.85.67-5-1.19a7,7,0,0,1-1.2-4,7.14,7.14,0,0,1,7.17-7.17h0a7,7,0,0,1,4,1.2C136.68,122,136,123.21,136,125.73Z"/>
      <circle class="cls-11" cx="128.98" cy="124.67" r="7.17"/>
    </g>
  </g>
</svg>
